# xmcd
#
# Track frame offsets: 
#        150
#        43147
#        60796
#        77776
#        81890
#        91882
#        100072
#
# Disc length: 1891 seconds
#
# Revision: 0
# Processed by: cddbd v1.5.2PL0 Copyright (c) Steve Scherf et al.
# Submitted via: ExactAudioCopyFreeDBPlugin 1.0
#
DISCID=47076107
DTITLE=Ruído-Milímetro - A Praia
DYEAR=1900
DGENRE=
TTITLE0=Praieira
TTITLE1=Sanfona
TTITLE2=Novíssima
TTITLE3=Caixinha de música
TTITLE4=Célula 2
TTITLE5=Stravinsky sky
TTITLE6=A praia
EXTD=
EXTT0=
EXTT1=
EXTT2=
EXTT3=
EXTT4=
EXTT5=
EXTT6=
PLAYORDER=
